<svg id="Layer_1" data-name="Layer 1" xmlns="http://www.w3.org/2000/svg" viewBox="0 0 499.01 499"><defs><style>.cls-1{fill:#ed1c24;}.cls-2{fill:#fff;}</style></defs><path class="cls-1" d="M499,249.5C499,387.3,387.3,499,249.5,499S0,387.3,0,249.5,111.71,0,249.5,0,499,111.72,499,249.5" transform="translate(0 0)"/><path class="cls-2" d="M257.08,141.37c16.81,0,35.52,1.8,57.26,5.51l3.26.56,4.77-32.72L319.6,114c-18.12-4.79-42.65-7.88-62.52-7.88-71.95,0-105.5,30.62-105.5,96.53v95c0,65.9,33.51,96.58,105.46,96.58,19.87,0,44.4-3.09,62.52-7.88l2.77-.76-4.75-32.75-3.26.57c-21.72,3.7-40.43,5.53-57.26,5.53-50.57,0-66.79-14.61-66.79-60.15V201.52c0-45.54,16.22-60.15,66.79-60.15" transform="translate(0 0)"/></svg>